<?xml version="1.0" encoding="UTF-8"?>
<!-- Generated by Pixelmator Pro 3.7.1 -->
<svg width="2800" height="786" viewBox="0 0 2800 786" xmlns="http://www.w3.org/2000/svg">
    <path id="Path" fill="#231f20" stroke="none" d="M 716.257263 775.334351 L 924.295593 775.334351 L 924.295593 10.026978 L 716.257263 10.026978 Z"/>
    <path id="path1" fill="#231f20" stroke="none" d="M 1256.369629 -0.666016 L 963.514221 706.390686 L 1155.710327 785.992188 L 1448.585205 78.935486 Z"/>
    <path id="path2" fill="#231f20" stroke="none" d="M 1417.338501 631.969604 L 1337.736938 439.79303 L 2044.77417 146.918091 L 2124.375732 339.094696 Z"/>
    <path id="path3" fill="#231f20" stroke="none" d="M 381.716064 775.394958 C 279.748016 775.394958 183.894135 735.682068 111.793724 663.601196 C 39.71286 591.500793 -7e-06 495.62738 -7e-06 393.678864 C -7e-06 291.710815 39.71286 195.856934 111.813248 123.776001 C 183.894135 51.675659 279.748016 11.962769 381.716064 11.962769 C 483.684143 11.962769 579.538025 51.675659 651.638428 123.776001 L 504.527039 270.86792 C 471.729248 238.050598 428.109589 220.001099 381.716064 220.001099 C 335.322571 220.001099 291.702881 238.050598 258.905121 270.86792 C 226.087799 303.66568 208.018753 347.285339 208.018753 393.678864 C 208.018753 440.072357 226.087799 483.692047 258.905121 516.509338 C 291.702881 549.307129 335.322571 567.37616 381.716064 567.37616 C 428.109589 567.37616 471.729248 549.307129 504.527039 516.509338 L 651.638428 663.601196 C 579.538025 735.682068 483.684143 775.394958 381.716064 775.394958"/>
    <path id="path4" fill="#231f20" stroke="none" d="M 2530.069824 775.394958 C 2428.101807 775.394958 2332.247803 735.682068 2260.147461 663.601196 C 2188.06665 591.500793 2148.35376 495.62738 2148.35376 393.678864 C 2148.35376 291.730316 2188.06665 195.876465 2260.147461 123.776001 C 2332.247803 51.675659 2428.101807 11.962769 2530.069824 11.962769 C 2632.037842 11.962769 2727.891846 51.675659 2799.992188 123.776001 L 2652.880859 270.86792 C 2620.083008 238.050598 2576.463379 220.001099 2530.069824 220.001099 C 2483.67627 220.001099 2440.056641 238.050598 2407.258789 270.86792 C 2374.44165 303.66568 2356.372559 347.285339 2356.372559 393.678864 C 2356.372559 440.072357 2374.44165 483.692047 2407.258789 516.509338 C 2440.056641 549.307129 2483.67627 567.37616 2530.069824 567.37616 C 2576.463379 567.37616 2620.083008 549.307129 2652.880859 516.509338 L 2799.992188 663.601196 C 2727.891846 735.682068 2632.037842 775.394958 2530.069824 775.394958"/>
</svg>
